<svg
width="20px"
height="20px"
fill="white"
viewBox="0 0 17 17"
xmlns="http://www.w3.org/2000/svg"
>
<path
  d="M1 16.0169L4.30024 6.67468L8.81903 4.44067L12.7285 8.24864L10.5453 12.6659L1 16.0169ZM1 16.0169L6.22961 10.3303C6.14034 10.0243 5.98293 9.4818 6.22961 9.11178C6.73734 8.35019 7.29584 8.29941 7.90512 8.40096C8.2511 8.45862 8.76826 9.01024 8.76826 9.61951C8.71748 9.97492 8.70624 10.3347 8.3113 10.6857C8.13124 10.9398 7.39739 11.0919 6.94043 10.8888L1 16.0169Z"
  stroke="currentColor"
  strokeWidth="0.1"
  strokeLinecap="round"
  strokeLinejoin="round"
/>
<path
  d="M9.42812 3.22206L11.459 1.24192C11.6769 1.06634 11.916 1.03883 12.1191 1.24192L15.8255 4.89757C16.0733 5.27712 16.0419 5.44713 15.8255 5.70994L14.0485 7.48699C13.7619 7.74964 13.5945 7.7698 13.2869 7.63931L9.58044 3.93288C9.2883 3.69703 9.2673 3.53865 9.42812 3.22206Z"
  stroke="currentColor"
  strokeWidth="0.1"
  strokeLinecap="round"
  strokeLinejoin="round"
/>
</svg>