<svg width="22" height="22" viewBox="0 0 22 22" fill="none" xmlns="http://www.w3.org/2000/svg">
<path d="M1.17648 20.8434L5.05912 9.85257L10.3753 7.22432L14.9747 11.7043L12.4062 16.9011L1.17648 20.8434ZM1.17648 20.8434L7.32897 14.1533C7.22394 13.7933 7.03875 13.1551 7.32897 12.7197C7.9263 11.8238 8.58335 11.764 9.30015 11.8835C9.70719 11.9513 10.3156 12.6003 10.3156 13.3171C10.2559 13.7352 10.2426 14.1585 9.77801 14.5714C9.56618 14.8704 8.70282 15.0493 8.16522 14.8104L1.17648 20.8434Z" fill="white" stroke="black" stroke-width="0.9"/>
<path d="M11.0919 5.79065L13.4812 3.46107C13.7375 3.25451 14.0188 3.22214 14.2578 3.46107L18.6182 7.76184C18.9098 8.20837 18.8728 8.40838 18.6182 8.71757L16.5277 10.8082C16.1905 11.1172 15.9935 11.1409 15.6317 10.9874L11.2711 6.62691C10.9274 6.34944 10.9027 6.16311 11.0919 5.79065Z" fill="white" stroke="black" stroke-width="0.9"/>
</svg>
