<svg width="14" height="17" viewBox="0 0 14 17" fill="none" xmlns="http://www.w3.org/2000/svg">
<g id="pick">
<path d="M12.5 9C12 11 11.5 14.5 10.5 15C8.5 16.5 5 16.5 3 14C1.5 11.5 0.481347 10.4082 1.11955 6.5823C1.75776 2.75636 2.59234 4.52218 2.59234 4.52218V2.75636C3.16027 1.33774 4.54948 1.83379 5.17647 2.66236C5.24335 0.696237 7.30524 0.401934 7.89436 2.16775V2.75636C8.48347 1.28484 9.95625 1.28484 10.5454 2.75636V3.93357C11.3505 2.67746 12.1708 2.75636 12.6073 3.93357C12.6073 3.93357 13 7 12.5 9Z" fill="white"/>
<path d="M5.24335 5.99369V2.75636M5.24335 2.75636L5.17647 2.66236C5.24335 0.696237 7.30524 0.401934 7.89436 2.16775V5.99369V2.75636C8.48347 1.28484 9.95625 1.28484 10.5454 2.75636V5.99369V3.93357C11.3505 2.67746 12.1708 2.75636 12.6073 3.93357C12.6073 3.93357 13 7 12.5 9C12 11 11.5 14.5 10.5 15C8.5 16.5 5 16.5 3 14C1.5 11.5 0.481347 10.4082 1.11955 6.5823C1.75776 2.75636 2.59234 4.52218 2.59234 4.52218M5.24335 2.75636C4.65423 1.87345 3.18145 1.28484 2.59234 2.75636V4.52218M2.59234 7.46521V4.52218" stroke="black" stroke-width="0.6"/>
</g>
</svg>
