<svg width="16" height="16" viewBox="0 0 16 16" fill="none" xmlns="http://www.w3.org/2000/svg">
<g id="resize">
<g id="Union">
<mask id="path-1-inside-1" fill="white">
<path fill-rule="evenodd" clip-rule="evenodd" d="M4.08106 3.12919L3.19912 4.01112L7.13883 7.95083L3.05333 12.0363L3.93527 12.9183L8.02076 8.83277L12.0654 12.8774L12.9473 11.9954L8.9027 7.95083L12.8015 4.05201L11.9196 3.17007L8.02076 7.0689L4.08106 3.12919Z"/>
</mask>
<path fill-rule="evenodd" clip-rule="evenodd" d="M4.08106 3.12919L3.19912 4.01112L7.13883 7.95083L3.05333 12.0363L3.93527 12.9183L8.02076 8.83277L12.0654 12.8774L12.9473 11.9954L8.9027 7.95083L12.8015 4.05201L11.9196 3.17007L8.02076 7.0689L4.08106 3.12919Z" fill="white"/>
<path d="M3.19912 4.01112L2.98699 3.79899L2.77486 4.01112L2.98699 4.22326L3.19912 4.01112ZM4.08106 3.12919L4.29319 2.91706L4.08106 2.70492L3.86892 2.91706L4.08106 3.12919ZM7.13883 7.95083L7.35096 8.16296L7.56309 7.95083L7.35096 7.7387L7.13883 7.95083ZM3.05333 12.0363L2.8412 11.8242L2.62907 12.0363L2.8412 12.2485L3.05333 12.0363ZM3.93527 12.9183L3.72314 13.1304L3.93527 13.3425L4.1474 13.1304L3.93527 12.9183ZM8.02076 8.83277L8.2329 8.62064L8.02076 8.4085L7.80863 8.62064L8.02076 8.83277ZM12.0654 12.8774L11.8532 13.0895L12.0654 13.3016L12.2775 13.0895L12.0654 12.8774ZM12.9473 11.9954L13.1594 12.2076L13.3716 11.9954L13.1594 11.7833L12.9473 11.9954ZM8.9027 7.95083L8.69057 7.7387L8.47843 7.95083L8.69057 8.16296L8.9027 7.95083ZM12.8015 4.05201L13.0137 4.26414L13.2258 4.05201L13.0137 3.83988L12.8015 4.05201ZM11.9196 3.17007L12.1317 2.95794L11.9196 2.74581L11.7075 2.95794L11.9196 3.17007ZM8.02076 7.0689L7.80863 7.28103L8.02076 7.49316L8.2329 7.28103L8.02076 7.0689ZM3.41125 4.22326L4.29319 3.34132L3.86892 2.91706L2.98699 3.79899L3.41125 4.22326ZM7.35096 7.7387L3.41125 3.79899L2.98699 4.22326L6.9267 8.16296L7.35096 7.7387ZM3.26546 12.2485L7.35096 8.16296L6.9267 7.7387L2.8412 11.8242L3.26546 12.2485ZM4.1474 12.7061L3.26546 11.8242L2.8412 12.2485L3.72314 13.1304L4.1474 12.7061ZM7.80863 8.62064L3.72314 12.7061L4.1474 13.1304L8.2329 9.0449L7.80863 8.62064ZM12.2775 12.6652L8.2329 8.62064L7.80863 9.0449L11.8532 13.0895L12.2775 12.6652ZM12.7352 11.7833L11.8532 12.6652L12.2775 13.0895L13.1594 12.2076L12.7352 11.7833ZM8.69057 8.16296L12.7352 12.2076L13.1594 11.7833L9.11483 7.7387L8.69057 8.16296ZM12.5894 3.83988L8.69057 7.7387L9.11483 8.16296L13.0137 4.26414L12.5894 3.83988ZM11.7075 3.38221L12.5894 4.26414L13.0137 3.83988L12.1317 2.95794L11.7075 3.38221ZM8.2329 7.28103L12.1317 3.38221L11.7075 2.95794L7.80863 6.85676L8.2329 7.28103ZM3.86892 3.34132L7.80863 7.28103L8.2329 6.85676L4.29319 2.91706L3.86892 3.34132Z" fill="black" mask="url(#path-1-inside-1)"/>
</g>
<path id="Vector 3" d="M5.30954 1.35758L5.77439 1.85819L1.80524 5.72007L1.37614 5.29097L1.05432 1L5.30954 1.35758Z" fill="white" stroke="black" stroke-width="0.4"/>
<path id="Vector 5" d="M10.6733 14.5881L10.2084 14.0875L14.1776 10.2256L14.6067 10.6547L14.9285 14.9457L10.6733 14.5881Z" fill="white" stroke="black" stroke-width="0.4"/>
<path id="Vector 6" d="M14.6424 5.32673L14.1418 5.79159L10.2799 1.82244L10.709 1.39334L15 1.07152L14.6424 5.32673Z" fill="white" stroke="black" stroke-width="0.4"/>
<path id="Vector 4" d="M1.35758 10.6361L1.85819 10.1712L5.72007 14.1404L5.29097 14.5695L1 14.8913L1.35758 10.6361Z" fill="white" stroke="black" stroke-width="0.4"/>
</g>
</svg>
