<svg width="89" height="95" viewBox="0 0 89 95" fill="none" xmlns="http://www.w3.org/2000/svg">
<g id="select">
<path d="M13.5159 45.8137L29.0159 53.8137V8C31.516 -1.50001 42.516 -1.99997 44.5159 8.00002V27.8137C48.516 20.3137 56.516 21.8137 59.5159 28.8137V32.3137C63.516 23.8137 72.516 24.8137 74.5159 34.3137V39.3137C78.516 30.3137 87.516 34.1275 87.516 40.8137C87.516 47.5 87.516 53.8137 85 64.5C77.5 98.5 44.5159 100.314 26.0159 82.3137C7.51586 64.3137 3.01587 57.3137 3.01587 57.3137C-2.48402 48.8137 4.01594 41.8137 13.5159 45.8137Z" fill="white"/>
<path d="M29.0159 53.8137L13.5159 45.8137C4.01594 41.8137 -2.48402 48.8137 3.01587 57.3137C3.01587 57.3137 7.51586 64.3137 26.0159 82.3137C44.5159 100.314 77.5 98.5 85 64.5C87.516 53.8137 87.516 47.5 87.516 40.8137C87.516 34.1275 78.516 30.3137 74.5159 39.3137V48.8137V34.3137C72.516 24.8137 63.516 23.8137 59.5159 32.3137V46.8137V28.8137C56.516 21.8137 48.516 20.3137 44.5159 27.8137V44.3137V8.00002C42.516 -1.99997 31.516 -1.50001 29.0159 8V58.5V53.8137Z" stroke="black"/>
</g>
</svg>
